<svg viewBox="0 0 2155 960" xmlns="http://www.w3.org/2000/svg" xml:space="preserve" style="fill-rule:evenodd;clip-rule:evenodd;stroke-linejoin:round;stroke-miterlimit:2"><path d="M1196.54 391.086c312.52.286 688.12 250.66 679.72 468.104-.71 18.506-25.19 12.815-28.33 29.599l118.07-1.132V887c0-267.242-278.44-489.319-643.15-531.708v-.124c-40.94-4.715-82.95-7.168-125.78-7.168H1196c-42.83 0-84.84 2.453-125.77 7.168v.124C705.516 397.681 427.072 619.758 427.072 887v.657l118.07 1.132c-3.135-16.784-27.62-11.093-28.334-29.599-8.397-217.444 367.209-467.818 679.732-468.104" style="fill:#fff" transform="matrix(-1.29636 0 0 1.65869 2628.64 -573.224)"/><path d="M428.601 384.27h89.412L731.495 875h-121.99l-77.414-186.798-125.36 8.016L335.722 875H216.505zm41.587 142.783L410.579 679.54h119.91z" style="fill:#fff;fill-rule:nonzero" transform="matrix(.63432 0 0 .79334 696.83509 159.79366)"/><path d="M879.67 660.066 879 637s7.854.833 20.054 1c8.254.113 17.659-4.368 25.067-8 9.86-4.833 25.569-12 37.1-19 11.323-6.874 21.557-14 32.086-20 9.603-5.475 21.223-11 31.083-14 9.36-2.848 25.33-7.391 35.09-8 10.7-.667 20.73 0 30.09 1 7.25.776 17.93 5.378 27.47 14 5.62 5.082 19.65 25 19.65 25s-13.49-8.411-22.07-10.751L1113 621s-25.33-3.667-37-2c-11.53 1.647-22.32 6.375-33 11-11.17 4.833-23.67 10.278-35 16-16.5 8.333-47.333 26.917-64 35-11.531 5.593-25.333 11.25-36 13.5-9.132 1.926-28 0-28 0l-1-34.5s.229.024.67.066" style="fill:#fff" transform="matrix(1.22311 0 0 1.05987 -305.68342 75.67708)"/><text x="-540.037" y="875" style="font-family:&quot;Avenir-Black&quot;,&quot;Avenir&quot;,sans-serif;font-weight:800;font-size:693.122px;fill:#fff;stroke:#fff;stroke-width:13.92px" transform="matrix(.63432 0 0 .79334 790.0843 157.54144)">N</text><text x="24.857" y="875" style="font-family:&quot;Avenir-Black&quot;,&quot;Avenir&quot;,sans-serif;font-weight:800;font-size:693.122px;fill:#fff;fill-opacity:0" transform="matrix(.63432 0 0 .79334 790.0843 157.54144)">A</text><text x="538.46" y="875" style="font-family:&quot;Avenir-Black&quot;,&quot;Avenir&quot;,sans-serif;font-weight:800;font-size:693.122px;fill:#fff;stroke:#fff;stroke-width:13.92px" transform="matrix(.63432 0 0 .79334 790.0843 157.54144)">CC</text><path d="M2035.5 940c39.78 3.031 118 20 118 20H1128.01s79.36-28.406 120.89-32c41.56-3.596 89.11 19.735 129.47 19.422 38.11-.296 74.57-21.707 112.68-21.302 48.22.513 121.02 13.983 175.63 15.379 50.72 1.296 101.31-6.799 152.04-7.006 61.47-.249 160.98 1.256 216.78 5.507" style="fill:#fff" transform="matrix(.82935 0 0 1 367.496 0)"/><path d="M2035.5 940c39.78 3.031 118 20 118 20H1128.01s79.36-28.406 120.89-32c41.56-3.596 89.11 19.735 129.47 19.422 38.11-.296 74.57-21.707 112.68-21.302 48.22.513 121.02 13.983 175.63 15.379 50.72 1.296 101.31-6.799 152.04-7.006 61.47-.249 160.98 1.256 216.78 5.507" style="fill:#fff" transform="matrix(-.82935 0 0 1 1786 0)"/></svg>